<svg xmlns="http://www.w3.org/2000/svg" version="1.1" xmlns:xlink="http://www.w3.org/1999/xlink" xmlns:svgjs="http://svgjs.dev/svgjs" width="1500" height="1500" viewBox="0 0 1500 1500"><rect width="1500" height="1500" fill="#000000"></rect><g transform="matrix(0.6666666666666666,0,0,0.6666666666666666,249.57668806844288,403.61403508771934)"><svg viewBox="0 0 356 247" data-background-color="#fafafa" preserveAspectRatio="xMidYMid meet" height="1040" width="1500" xmlns="http://www.w3.org/2000/svg" xmlns:xlink="http://www.w3.org/1999/xlink"><g id="tight-bounds" transform="matrix(1,0,0,1,0.15069904763433328,-0.09999999999999432)"><svg viewBox="0 0 355.69860190473133 247.2" height="247.2" width="355.69860190473133"><g><svg viewBox="0 0 395.52 274.874693002552" height="247.2" width="355.69860190473133"><g transform="matrix(1,0,0,1,0,200.50818860478427)"><svg viewBox="0 0 395.52 74.36650439776778" height="74.36650439776778" width="395.52"><g id="textblocktransform"><svg viewBox="0 0 395.52 74.36650439776778" height="74.36650439776778" width="395.52" id="textblock"><g><svg viewBox="0 0 395.52 40.10973897389739" height="40.10973897389739" width="395.52"><g transform="matrix(1,0,0,1,0,0)"><svg width="395.52" viewBox="0.9 -38.9 499.91 50.7" height="40.10973897389739" data-palette-color="#130912"><path d="M27.85-8.2L30.05-8.2 30.05 0 16.85 0 16.85-3.4Q15.75-1.8 13.78-0.55 11.8 0.7 8.95 0.7L8.95 0.7Q5.2 0.7 3.05-1.3 0.9-3.3 0.9-6.95L0.9-6.95Q0.9-16.4 16.95-16.65L16.95-16.65Q16.8-18.35 15.65-18.98 14.5-19.6 11.75-19.6L11.75-19.6Q9.5-19.6 6.93-19.13 4.35-18.65 2.2-17.85L2.2-17.85 2.2-27.05Q4.85-27.7 7.95-28.1 11.05-28.5 14-28.5L14-28.5Q21.45-28.5 24.65-25.8 27.85-23.1 27.85-17.45L27.85-17.45 27.85-8.2ZM16.85-11.4L16.85-11.7Q14.6-11.7 13.38-11.1 12.15-10.5 12.15-9.1L12.15-9.1Q12.15-8.25 12.68-7.73 13.2-7.2 14.15-7.2L14.15-7.2Q15.45-7.2 16.15-8.3 16.85-9.4 16.85-11.4L16.85-11.4ZM47.55 0.05L31.65 0.05 31.65-8.2 33.85-8.2 33.85-30.7 31.65-30.7 31.65-38.9 45.35-38.9 45.35-8.2 47.55-8.2 47.55 0.05ZM64.05 0.7Q56.95 0.7 52.95-3.03 48.95-6.75 48.95-13.9L48.95-13.9Q48.95-21.05 52.95-24.78 56.95-28.5 64.05-28.5L64.05-28.5Q71.09-28.5 74.22-24.83 77.34-21.15 77.34-15.7L77.34-15.7 77.34-12.1 61.15-12.1 61.15-11.8Q61.15-9.95 62.25-9.08 63.35-8.2 65.9-8.2L65.9-8.2Q68.95-8.2 71.7-8.65 74.45-9.1 76.5-9.8L76.5-9.8 76.5-1.8Q74.75-0.85 71.37-0.08 68 0.7 64.05 0.7L64.05 0.7ZM61.15-17.6L66.95-17.6 66.95-18.2Q66.95-19.9 66.22-20.65 65.5-21.4 64.05-21.4L64.05-21.4Q62.6-21.4 61.87-20.63 61.15-19.85 61.15-18.2L61.15-18.2 61.15-17.6ZM91.19-30.55L80.99-30.55 80.99-38.9 91.19-38.9 91.19-30.55ZM80.64 11.8Q78.59 11.8 76.42 11.45 74.24 11.1 72.74 10.7L72.74 10.7 72.74 2.55Q75.09 2.9 76.94 2.9L76.94 2.9Q80.79 2.9 80.79-0.7L80.79-0.7 80.79-19.6 77.44-19.6 77.44-27.8 92.29-27.8 92.29-1.7Q92.29 5.15 89.39 8.47 86.49 11.8 80.64 11.8L80.64 11.8ZM121.44-8.2L123.64-8.2 123.64 0 110.44 0 110.44-3.4Q109.34-1.8 107.37-0.55 105.39 0.7 102.54 0.7L102.54 0.7Q98.79 0.7 96.64-1.3 94.49-3.3 94.49-6.95L94.49-6.95Q94.49-16.4 110.54-16.65L110.54-16.65Q110.39-18.35 109.24-18.98 108.09-19.6 105.34-19.6L105.34-19.6Q103.09-19.6 100.52-19.13 97.94-18.65 95.79-17.85L95.79-17.85 95.79-27.05Q98.44-27.7 101.54-28.1 104.64-28.5 107.59-28.5L107.59-28.5Q115.04-28.5 118.24-25.8 121.44-23.1 121.44-17.45L121.44-17.45 121.44-8.2ZM110.44-11.4L110.44-11.7Q108.19-11.7 106.97-11.1 105.74-10.5 105.74-9.1L105.74-9.1Q105.74-8.25 106.27-7.73 106.79-7.2 107.74-7.2L107.74-7.2Q109.04-7.2 109.74-8.3 110.44-9.4 110.44-11.4L110.44-11.4ZM156.24-8.2L158.44-8.2 158.44 0 142.64 0 142.64-8.2 144.74-8.2 144.74-16.4Q144.74-18.05 144.04-18.82 143.34-19.6 141.94-19.6L141.94-19.6Q138.94-19.6 138.94-16.4L138.94-16.4 138.94-8.2 141.04-8.2 141.04 0 125.24 0 125.24-8.2 127.44-8.2 127.44-19.6 125.24-19.6 125.24-27.8 138.94-27.8 138.94-23.9Q142.54-28.5 147.94-28.5L147.94-28.5Q152.09-28.5 154.16-25.9 156.24-23.3 156.24-18.75L156.24-18.75 156.24-8.2ZM169.89 0.7Q164.79 0.7 162.21-3.1 159.64-6.9 159.64-13.9L159.64-13.9Q159.64-20.9 162.21-24.7 164.79-28.5 169.89-28.5L169.89-28.5Q172.44-28.5 174.41-27.25 176.39-26 177.64-24.4L177.64-24.4 177.64-30.7 174.69-30.7 174.69-38.9 189.14-38.9 189.14-8.2 191.34-8.2 191.34 0 177.64 0 177.64-3.4Q176.39-1.8 174.41-0.55 172.44 0.7 169.89 0.7L169.89 0.7ZM174.74-8.2Q176.19-8.2 176.91-8.97 177.64-9.75 177.64-11.4L177.64-11.4 177.64-16.4Q177.64-18.05 176.91-18.82 176.19-19.6 174.74-19.6L174.74-19.6Q173.29-19.6 172.56-18.82 171.84-18.05 171.84-16.4L171.84-16.4 171.84-11.4Q171.84-9.75 172.56-8.97 173.29-8.2 174.74-8.2L174.74-8.2ZM214.28-28.5Q215.28-28.5 216.18-28.3 217.08-28.1 217.68-27.8L217.68-27.8 217.68-18.25Q215.63-19.1 213.28-19.1L213.28-19.1Q210.13-19.1 208.43-17.45 206.73-15.8 206.73-12.55L206.73-12.55 206.73-8.2 211.23-8.2 211.23 0 193.03 0 193.03-8.2 195.23-8.2 195.23-19.6 193.03-19.6 193.03-27.8 206.73-27.8 206.73-24.15Q208.13-26.25 209.93-27.38 211.73-28.5 214.28-28.5L214.28-28.5ZM234.18 0.7Q227.08 0.7 223.08-3.03 219.08-6.75 219.08-13.9L219.08-13.9Q219.08-21.05 223.08-24.78 227.08-28.5 234.18-28.5L234.18-28.5Q241.38-28.5 245.33-24.73 249.28-20.95 249.28-13.9L249.28-13.9Q249.28-6.75 245.28-3.03 241.28 0.7 234.18 0.7L234.18 0.7ZM234.18-8.2Q235.63-8.2 236.36-8.97 237.08-9.75 237.08-11.4L237.08-11.4 237.08-16.4Q237.08-18.05 236.36-18.82 235.63-19.6 234.18-19.6L234.18-19.6Q232.73-19.6 232.01-18.82 231.28-18.05 231.28-16.4L231.28-16.4 231.28-11.4Q231.28-9.75 232.01-8.97 232.73-8.2 234.18-8.2L234.18-8.2ZM265.68 11.1L265.68 2.9 267.88 2.9 267.88-19.6 265.68-19.6 265.68-27.8 279.38-27.8 279.38-24.4Q280.63-26 282.6-27.25 284.58-28.5 287.13-28.5L287.13-28.5Q292.23-28.5 294.8-24.7 297.38-20.9 297.38-13.9L297.38-13.9Q297.38-6.9 294.8-3.1 292.23 0.7 287.13 0.7L287.13 0.7Q284.58 0.7 282.6-0.55 280.63-1.8 279.38-3.4L279.38-3.4 279.38 2.9 282.83 2.9 282.83 11.1 265.68 11.1ZM282.28-8.2Q283.73-8.2 284.45-8.97 285.18-9.75 285.18-11.4L285.18-11.4 285.18-16.4Q285.18-18.05 284.45-18.82 283.73-19.6 282.28-19.6L282.28-19.6Q280.83-19.6 280.1-18.82 279.38-18.05 279.38-16.4L279.38-16.4 279.38-11.4Q279.38-9.75 280.1-8.97 280.83-8.2 282.28-8.2L282.28-8.2ZM311.37-30.55L301.17-30.55 301.17-38.9 311.37-38.9 311.37-30.55ZM314.67 0L298.77 0 298.77-8.2 300.97-8.2 300.97-19.6 298.77-19.6 298.77-27.8 312.47-27.8 312.47-8.2 314.67-8.2 314.67 0ZM364.37-8.2L366.57-8.2 366.57 0 350.77 0 350.77-8.2 352.87-8.2 352.87-16.4Q352.87-18.05 352.17-18.82 351.47-19.6 350.07-19.6L350.07-19.6Q347.07-19.6 347.07-16.4L347.07-16.4 347.07-8.2 349.17-8.2 349.17 0 333.47 0 333.47-8.2 335.57-8.2 335.57-16.4Q335.57-18.05 334.87-18.82 334.17-19.6 332.77-19.6L332.77-19.6Q329.77-19.6 329.77-16.4L329.77-16.4 329.77-8.2 331.87-8.2 331.87 0 316.07 0 316.07-8.2 318.27-8.2 318.27-19.6 316.07-19.6 316.07-27.8 329.77-27.8 329.77-23.9Q333.37-28.5 338.77-28.5L338.77-28.5Q341.82-28.5 343.75-27.08 345.67-25.65 346.47-23.05L346.47-23.05Q348.27-25.65 350.6-27.05 352.92-28.45 356.07-28.45L356.07-28.45Q360.22-28.45 362.3-25.85 364.37-23.25 364.37-18.7L364.37-18.7 364.37-8.2ZM383.07 0.7Q375.97 0.7 371.97-3.03 367.97-6.75 367.97-13.9L367.97-13.9Q367.97-21.05 371.97-24.78 375.97-28.5 383.07-28.5L383.07-28.5Q390.12-28.5 393.24-24.83 396.37-21.15 396.37-15.7L396.37-15.7 396.37-12.1 380.17-12.1 380.17-11.8Q380.17-9.95 381.27-9.08 382.37-8.2 384.92-8.2L384.92-8.2Q387.97-8.2 390.72-8.65 393.47-9.1 395.52-9.8L395.52-9.8 395.52-1.8Q393.77-0.85 390.39-0.08 387.02 0.7 383.07 0.7L383.07 0.7ZM380.17-17.6L385.97-17.6 385.97-18.2Q385.97-19.9 385.24-20.65 384.52-21.4 383.07-21.4L383.07-21.4Q381.62-21.4 380.89-20.63 380.17-19.85 380.17-18.2L380.17-18.2 380.17-17.6ZM428.87-8.2L431.07-8.2 431.07 0 415.27 0 415.27-8.2 417.37-8.2 417.37-16.4Q417.37-18.05 416.67-18.82 415.97-19.6 414.57-19.6L414.57-19.6Q411.57-19.6 411.57-16.4L411.57-16.4 411.57-8.2 413.67-8.2 413.67 0 397.87 0 397.87-8.2 400.07-8.2 400.07-19.6 397.87-19.6 397.87-27.8 411.57-27.8 411.57-23.9Q415.17-28.5 420.57-28.5L420.57-28.5Q424.72-28.5 426.79-25.9 428.87-23.3 428.87-18.75L428.87-18.75 428.87-8.2ZM445.01 0.7Q439.71 0.7 437.04-1.88 434.36-4.45 434.36-10.55L434.36-10.55 434.36-19.6 432.16-19.6 432.16-27.8Q434.06-27.8 435.01-28.78 435.96-29.75 435.96-31.45L435.96-31.45 435.96-33.7 446.56-33.7 446.56-27.8 453.31-27.8 453.31-19.6 446.56-19.6 446.56-11.4Q446.56-9.75 447.29-8.97 448.01-8.2 449.46-8.2L449.46-8.2Q451.36-8.2 453.61-8.65L453.61-8.65 453.61-0.8Q452.21-0.25 449.84 0.23 447.46 0.7 445.01 0.7L445.01 0.7ZM470.11 0.7Q463.01 0.7 459.01-3.03 455.01-6.75 455.01-13.9L455.01-13.9Q455.01-21.05 459.01-24.78 463.01-28.5 470.11-28.5L470.11-28.5Q477.16-28.5 480.29-24.83 483.41-21.15 483.41-15.7L483.41-15.7 483.41-12.1 467.21-12.1 467.21-11.8Q467.21-9.95 468.31-9.08 469.41-8.2 471.96-8.2L471.96-8.2Q475.01-8.2 477.76-8.65 480.51-9.1 482.56-9.8L482.56-9.8 482.56-1.8Q480.81-0.85 477.44-0.08 474.06 0.7 470.11 0.7L470.11 0.7ZM467.21-17.6L473.01-17.6 473.01-18.2Q473.01-19.9 472.29-20.65 471.56-21.4 470.11-21.4L470.11-21.4Q468.66-21.4 467.94-20.63 467.21-19.85 467.21-18.2L467.21-18.2 467.21-17.6ZM500.81 0.05L484.91 0.05 484.91-8.2 487.11-8.2 487.11-30.7 484.91-30.7 484.91-38.9 498.61-38.9 498.61-8.2 500.81-8.2 500.81 0.05Z" opacity="1" transform="matrix(1,0,0,1,0,0)" fill="#ffffff" class="wordmark-text-0" data-fill-palette-color="primary" id="text-0"></path></svg></g></svg></g><g transform="matrix(1,0,0,1,91.4884659293097,49.5786857118992)"><svg viewBox="0 0 212.5430681413806 24.78781868586859" height="24.78781868586859" width="212.5430681413806"><g transform="matrix(1,0,0,1,0,0)"><svg width="212.5430681413806" viewBox="0.65 -36.85 319.37 37.25" height="24.78781868586859" data-palette-color="#130912"><path d="M10.9 0.4L10.9 0.4Q7.9 0.4 6.28-1.28 4.65-2.95 4.65-6.1L4.65-6.1 4.65-21.6 1.6-21.6Q1.2-21.6 0.93-21.85 0.65-22.1 0.65-22.6L0.65-22.6 0.65-24.35 4.8-24.9 5.85-32.7Q5.95-33.55 6.85-33.55L6.85-33.55 9.1-33.55 9.1-24.85 16.35-24.85 16.35-21.6 9.1-21.6 9.1-6.4Q9.1-4.8 9.88-4.03 10.65-3.25 11.9-3.25L11.9-3.25Q12.45-3.25 13.1-3.55 13.75-3.85 14.3-4.15 14.85-4.45 15.1-4.45L15.1-4.45Q15.45-4.45 15.7-4.05L15.7-4.05 17-1.9Q15.85-0.85 14.23-0.23 12.6 0.4 10.9 0.4ZM27.6 0L23.15 0 23.15-36.85 27.6-36.85 27.6-21.95Q29.25-23.65 31.22-24.7 33.2-25.75 35.75-25.75L35.75-25.75Q38.55-25.75 40.42-24.55 42.3-23.35 43.27-21.18 44.25-19 44.25-16.15L44.25-16.15 44.25 0 39.8 0 39.8-16.15Q39.8-19 38.47-20.6 37.15-22.2 34.45-22.2L34.45-22.2Q32.5-22.2 30.77-21.25 29.05-20.3 27.6-18.65L27.6-18.65 27.6 0ZM47.85 0L42.75 0 43.3-3.9 47.05-3.1Q47.45-3.05 47.65-2.78 47.85-2.5 47.85-2.05L47.85-2.05 47.85 0ZM24.65 0L19.55 0 19.55-2.05Q19.55-2.5 19.75-2.78 19.95-3.05 20.35-3.1L20.35-3.1 24.1-3.9 24.65 0ZM19.55-36.85L24.65-36.85 24.1-32.95 20.35-33.75Q19.95-33.85 19.75-34.1 19.55-34.35 19.55-34.8L19.55-34.8 19.55-36.85ZM31.2 0L26.1 0 26.65-3.9 30.4-3.1Q30.8-3.05 31-2.78 31.2-2.5 31.2-2.05L31.2-2.05 31.2 0ZM62.3 0.35L62.3 0.35Q58.65 0.35 55.92-1.3 53.2-2.95 51.7-6 50.2-9.05 50.2-13.2L50.2-13.2Q50.2-16.75 51.65-19.6 53.1-22.45 55.77-24.1 58.45-25.75 62.05-25.75L62.05-25.75Q65.2-25.75 67.55-24.35 69.9-22.95 71.22-20.43 72.55-17.9 72.55-14.4L72.55-14.4Q72.55-13.35 72.32-13 72.09-12.65 71.45-12.65L71.45-12.65 54.6-12.65Q54.6-12.5 54.6-12.33 54.6-12.15 54.6-12L54.6-12Q54.85-7.8 56.95-5.48 59.05-3.15 62.65-3.15L62.65-3.15Q64.2-3.15 65.72-3.78 67.25-4.4 68.42-5 69.59-5.6 70.09-5.6L70.09-5.6Q70.65-5.6 70.95-5.2L70.95-5.2 72.2-3.55Q71.2-2.25 69.52-1.38 67.84-0.5 65.95-0.08 64.05 0.35 62.3 0.35ZM54.75-15.45L54.75-15.45 68.55-15.45Q68.55-18.55 66.84-20.5 65.15-22.45 62.15-22.45L62.15-22.45Q58.9-22.45 57.05-20.6 55.2-18.75 54.75-15.45ZM96.69 0L92.24 0 92.24-36.85 96.69-36.85 96.69 0ZM93.74 0L88.64 0 88.64-2.05Q88.64-2.5 88.84-2.78 89.04-3.05 89.44-3.1L89.44-3.1 93.19-3.9 93.74 0ZM100.29 0L95.19 0 95.74-3.9 99.49-3.1Q99.89-3.05 100.09-2.78 100.29-2.5 100.29-2.05L100.29-2.05 100.29 0ZM88.64-36.85L93.74-36.85 93.19-32.95 89.44-33.75Q89.04-33.85 88.84-34.1 88.64-34.35 88.64-34.8L88.64-34.8 88.64-36.85ZM110.64 0L106.19 0 106.19-25.35 110.64-25.35 110.64 0ZM107.69 0L102.59 0 102.59-2.05Q102.59-2.5 102.79-2.78 102.99-3.05 103.39-3.1L103.39-3.1 107.14-3.9 107.69 0ZM114.24 0L109.14 0 109.69-3.9 113.44-3.1Q113.84-3.05 114.04-2.78 114.24-2.5 114.24-2.05L114.24-2.05 114.24 0ZM102.59-25.35L107.69-25.35 107.14-21.45 103.39-22.25Q102.99-22.35 102.79-22.6 102.59-22.85 102.59-23.3L102.59-23.3 102.59-25.35ZM108.34-30.15L108.34-30.15Q107.09-30.15 106.14-31.1 105.19-32.05 105.19-33.3L105.19-33.3Q105.19-34.6 106.14-35.55 107.09-36.5 108.34-36.5L108.34-36.5Q109.64-36.5 110.59-35.55 111.54-34.6 111.54-33.3L111.54-33.3Q111.54-32.05 110.59-31.1 109.64-30.15 108.34-30.15ZM124.34 0L119.89 0 119.89-25.35 122.54-25.35Q123.54-25.35 123.74-24.4L123.74-24.4 124.09-21.65Q125.74-23.5 127.79-24.63 129.84-25.75 132.49-25.75L132.49-25.75Q135.29-25.75 137.16-24.55 139.04-23.35 140.01-21.18 140.99-19 140.99-16.15L140.99-16.15 140.99 0 136.54 0 136.54-16.15Q136.54-19 135.21-20.6 133.89-22.2 131.19-22.2L131.19-22.2Q129.24-22.2 127.51-21.25 125.79-20.3 124.34-18.65L124.34-18.65 124.34 0ZM121.39 0L116.29 0 116.29-2.05Q116.29-2.5 116.49-2.78 116.69-3.05 117.09-3.1L117.09-3.1 120.84-3.9 121.39 0ZM127.94 0L122.84 0 123.39-3.9 127.14-3.1Q127.54-3.05 127.74-2.78 127.94-2.5 127.94-2.05L127.94-2.05 127.94 0ZM144.59 0L139.49 0 140.04-3.9 143.79-3.1Q144.19-3.05 144.39-2.78 144.59-2.5 144.59-2.05L144.59-2.05 144.59 0ZM116.29-25.35L121.39-25.35 120.84-21.45 117.09-22.25Q116.69-22.35 116.49-22.6 116.29-22.85 116.29-23.3L116.29-23.3 116.29-25.35ZM157.63 0.4L157.63 0.4Q154.88 0.4 152.98-0.83 151.08-2.05 150.11-4.2 149.13-6.35 149.13-9.2L149.13-9.2 149.13-25.35 153.58-25.35 153.58-9.2Q153.58-6.3 154.91-4.73 156.23-3.15 158.93-3.15L158.93-3.15Q160.88-3.15 162.61-4.08 164.33-5 165.78-6.65L165.78-6.65 165.78-25.35 170.23-25.35 170.23 0 167.58 0Q166.58 0 166.38-0.95L166.38-0.95 166.03-3.65Q164.38-1.85 162.33-0.73 160.28 0.4 157.63 0.4ZM173.83 0L168.73 0 169.28-3.9 173.03-3.1Q173.43-3.05 173.63-2.78 173.83-2.5 173.83-2.05L173.83-2.05 173.83 0ZM145.53-25.35L150.63-25.35 150.08-21.45 146.33-22.25Q145.93-22.35 145.73-22.6 145.53-22.85 145.53-23.3L145.53-23.3 145.53-25.35ZM162.18-25.35L167.28-25.35 166.73-21.45 162.98-22.25Q162.58-22.35 162.38-22.6 162.18-22.85 162.18-23.3L162.18-23.3 162.18-25.35ZM180.38 0L176.38 0 185.28-13 176.73-25.35 181.03-25.35Q181.58-25.35 181.83-25.18 182.08-25 182.28-24.65L182.28-24.65 188.48-15.15Q188.58-15.5 188.76-15.85 188.93-16.2 189.13-16.55L189.13-16.55 194.58-24.55Q194.83-24.9 195.08-25.13 195.33-25.35 195.68-25.35L195.68-25.35 199.78-25.35 191.28-13.25 200.13 0 195.88 0Q195.33 0 195.03-0.3 194.73-0.6 194.48-0.95L194.48-0.95 188.13-10.85Q188.03-10.5 187.91-10.18 187.78-9.85 187.58-9.55L187.58-9.55 181.68-0.95Q181.48-0.6 181.18-0.3 180.88 0 180.38 0L180.38 0ZM183.53-23.45L179.83-23.45 179.83-25.35 183.53-25.35 183.53-23.45ZM197.18-23.45L193.48-23.45 193.48-25.35 197.18-25.35 197.18-23.45ZM193.38-1.9L197.08-1.9 197.08 0 193.38 0 193.38-1.9ZM179.18-1.9L182.88-1.9 182.88 0 179.18 0 179.18-1.9ZM176.18-25.35L181.28-25.35 180.73-21.45 176.98-22.25Q176.58-22.35 176.38-22.6 176.18-22.85 176.18-23.3L176.18-23.3 176.18-25.35ZM181.08-25.35L186.18-25.35 186.18-23.3Q186.18-22.85 185.98-22.6 185.78-22.35 185.38-22.25L185.38-22.25 181.63-21.45 181.08-25.35ZM190.33-25.35L195.43-25.35 194.88-21.45 191.13-22.25Q190.73-22.35 190.53-22.6 190.33-22.85 190.33-23.3L190.33-23.3 190.33-25.35ZM195.23-25.35L200.33-25.35 200.33-23.3Q200.33-22.85 200.13-22.6 199.93-22.35 199.53-22.25L199.53-22.25 195.78-21.45 195.23-25.35ZM200.68 0L195.58 0 196.13-3.9 199.88-3.1Q200.28-3.05 200.48-2.78 200.68-2.5 200.68-2.05L200.68-2.05 200.68 0ZM185.98 0L180.88 0 181.43-3.9 185.18-3.1Q185.58-3.05 185.78-2.78 185.98-2.5 185.98-2.05L185.98-2.05 185.98 0ZM181.08 0L175.98 0 175.98-2.05Q175.98-2.5 176.18-2.78 176.38-3.05 176.78-3.1L176.78-3.1 180.53-3.9 181.08 0ZM195.83 0L190.73 0 190.73-2.05Q190.73-2.5 190.93-2.78 191.13-3.05 191.53-3.1L191.53-3.1 195.28-3.9 195.83 0ZM224.63 0L220.18 0 220.18-25.35 222.83-25.35Q223.83-25.35 224.03-24.4L224.03-24.4 224.38-21.65Q226.03-23.5 228.08-24.63 230.13-25.75 232.78-25.75L232.78-25.75Q235.58-25.75 237.45-24.55 239.33-23.35 240.3-21.18 241.28-19 241.28-16.15L241.28-16.15 241.28 0 236.83 0 236.83-16.15Q236.83-19 235.5-20.6 234.18-22.2 231.48-22.2L231.48-22.2Q229.53-22.2 227.8-21.25 226.08-20.3 224.63-18.65L224.63-18.65 224.63 0ZM221.68 0L216.58 0 216.58-2.05Q216.58-2.5 216.78-2.78 216.98-3.05 217.38-3.1L217.38-3.1 221.13-3.9 221.68 0ZM228.23 0L223.13 0 223.68-3.9 227.43-3.1Q227.83-3.05 228.03-2.78 228.23-2.5 228.23-2.05L228.23-2.05 228.23 0ZM244.88 0L239.78 0 240.33-3.9 244.08-3.1Q244.48-3.05 244.68-2.78 244.88-2.5 244.88-2.05L244.88-2.05 244.88 0ZM216.58-25.35L221.68-25.35 221.13-21.45 217.38-22.25Q216.98-22.35 216.78-22.6 216.58-22.85 216.58-23.3L216.58-23.3 216.58-25.35ZM259.32 0.35L259.32 0.35Q255.67 0.35 252.95-1.3 250.22-2.95 248.72-6 247.22-9.05 247.22-13.2L247.22-13.2Q247.22-16.75 248.67-19.6 250.12-22.45 252.8-24.1 255.47-25.75 259.07-25.75L259.07-25.75Q262.22-25.75 264.57-24.35 266.92-22.95 268.25-20.43 269.57-17.9 269.57-14.4L269.57-14.4Q269.57-13.35 269.35-13 269.12-12.65 268.47-12.65L268.47-12.65 251.62-12.65Q251.62-12.5 251.62-12.33 251.62-12.15 251.62-12L251.62-12Q251.87-7.8 253.97-5.48 256.07-3.15 259.67-3.15L259.67-3.15Q261.22-3.15 262.75-3.78 264.27-4.4 265.45-5 266.62-5.6 267.12-5.6L267.12-5.6Q267.67-5.6 267.97-5.2L267.97-5.2 269.22-3.55Q268.22-2.25 266.55-1.38 264.87-0.5 262.97-0.08 261.07 0.35 259.32 0.35ZM251.77-15.45L251.77-15.45 265.57-15.45Q265.57-18.55 263.87-20.5 262.17-22.45 259.17-22.45L259.17-22.45Q255.92-22.45 254.07-20.6 252.22-18.75 251.77-15.45ZM280.72 0L276.27 0 276.27-25.35 278.82-25.35Q279.57-25.35 279.87-25.08 280.17-24.8 280.22-24.1L280.22-24.1 280.52-20.15Q281.82-22.8 283.72-24.3 285.62-25.8 288.22-25.8L288.22-25.8Q289.27-25.8 290.12-25.55 290.97-25.3 291.67-24.9L291.67-24.9 291.12-21.55Q291.07-21.25 290.85-21.1 290.62-20.95 290.32-20.95L290.32-20.95Q289.97-20.95 288.97-21.18 287.97-21.4 287.22-21.4L287.22-21.4Q284.92-21.4 283.35-20.05 281.77-18.7 280.72-16.15L280.72-16.15 280.72 0ZM284.32 0L279.22 0 279.77-3.9 283.52-3.1Q283.92-3.05 284.12-2.78 284.32-2.5 284.32-2.05L284.32-2.05 284.32 0ZM277.77 0L272.67 0 272.67-2.05Q272.67-2.5 272.87-2.78 273.07-3.05 273.47-3.1L273.47-3.1 277.22-3.9 277.77 0ZM272.67-25.35L277.77-25.35 277.22-21.45 273.47-22.25Q273.07-22.35 272.87-22.6 272.67-22.85 272.67-23.3L272.67-23.3 272.67-25.35ZM303.67 0.35L303.67 0.35Q300.57 0.35 298.42-1.25 296.27-2.85 295.17-5.78 294.07-8.7 294.07-12.6L294.07-12.6Q294.07-16.3 295.37-19.28 296.67-22.25 299.14-24.03 301.62-25.8 305.02-25.8L305.02-25.8Q307.37-25.8 309.02-25 310.67-24.2 311.97-22.8L311.97-22.8 311.97-36.85 316.42-36.85 316.42 0 313.77 0Q312.77 0 312.57-0.95L312.57-0.95 312.17-4Q310.52-2.05 308.44-0.85 306.37 0.35 303.67 0.35ZM305.12-3.25L305.12-3.25Q307.32-3.25 308.94-4.25 310.57-5.25 311.97-7.1L311.97-7.1 311.97-19.35Q310.72-21 309.27-21.65 307.82-22.3 306.02-22.3L306.02-22.3Q303.67-22.3 302.02-21.18 300.37-20.05 299.52-17.88 298.67-15.7 298.67-12.6L298.67-12.6Q298.67-8.05 300.22-5.65 301.77-3.25 305.12-3.25ZM308.37-36.85L313.47-36.85 312.92-32.95 309.17-33.75Q308.77-33.85 308.57-34.1 308.37-34.35 308.37-34.8L308.37-34.8 308.37-36.85ZM320.02 0L314.92 0 315.47-3.9 319.22-3.1Q319.62-3.05 319.82-2.78 320.02-2.5 320.02-2.05L320.02-2.05 320.02 0Z" opacity="1" transform="matrix(1,0,0,1,0,0)" fill="#ffffff" class="slogan-text-1" data-fill-palette-color="secondary" id="text-1"></path></svg></g></svg></g></svg></g></svg></g><g transform="matrix(1,0,0,1,106.97485243560966,0)"><svg viewBox="0 0 181.57029512878066 181.57029512878066" height="181.57029512878066" width="181.57029512878066"><g><svg></svg></g><g id="icon-0"><svg viewBox="0 0 181.57029512878066 181.57029512878066" height="181.57029512878066" width="181.57029512878066"><g><path d="M0 90.785c0-50.139 40.646-90.785 90.785-90.785 50.139 0 90.785 40.646 90.785 90.785 0 50.139-40.646 90.785-90.785 90.785-50.139 0-90.785-40.646-90.785-90.785zM90.785 177.953c48.142 0 87.168-39.026 87.168-87.168 0-48.142-39.026-87.168-87.168-87.168-48.142 0-87.168 39.026-87.168 87.168 0 48.142 39.026 87.168 87.168 87.168z" data-fill-palette-color="accent" fill="#ffffff" stroke="transparent"></path><ellipse rx="89.87729608874642" ry="89.87729608874642" cx="90.78514756439033" cy="90.78514756439033" fill="#ffffff" stroke="transparent" stroke-width="0" fill-opacity="1" data-fill-palette-color="accent"></ellipse></g><g transform="matrix(1,0,0,1,47.01497292894572,37.79001026369075)"><svg viewBox="0 0 87.54034927088922 105.99027460139915" height="105.99027460139915" width="87.54034927088922"><g><svg xmlns="http://www.w3.org/2000/svg" xmlns:xlink="http://www.w3.org/1999/xlink" version="1.1" baseProfile="tiny" x="0" y="0" viewBox="2.5058594 0.5048826999999989 18.9882813 22.990234400000002" overflow="scroll" xml:space="preserve" height="105.99027460139915" width="87.54034927088922" class="icon-cg-0" data-fill-palette-color="quaternary" id="cg-0"><path d="M21.003 6.298l0-0.153c-0.009-0.121-0.249-2.97-2.042-4.259-1.724-1.238-4.758-1.381-6.89-1.381h-0.162c-2.124 0-5.146 0.143-6.87 1.381-1.793 1.288-2.033 4.138-2.044 4.317l0 0.095C2.71 6.405 2.506 6.674 2.506 6.996v6c0 0.362 0.261 0.65 0.602 0.72 0.329 1.964 0.872 4.299 1.702 5.434 0.707 0.968 1.982 2.191 3.432 3.093v0.492c0 0.414 0.336 0.75 0.75 0.75 0.322 0 0.591-0.205 0.698-0.49 0.742 0.308 1.494 0.5 2.214 0.5 0.02 0 0.051-0.002 0.082-0.005 0.032 0.003 0.063 0.005 0.085 0.005 0.727 0 1.488-0.196 2.237-0.51 0.104 0.29 0.374 0.5 0.7 0.5 0.414 0 0.75-0.336 0.75-0.75v-0.508c1.44-0.901 2.705-2.114 3.407-3.077 0.829-1.134 1.371-3.466 1.7-5.428 0.354-0.06 0.629-0.355 0.629-0.726v-6C21.494 6.673 21.289 6.404 21.003 6.298zM4.006 12.246v-4.5h5.632l1.325 1.288c0.14 0.136 0.327 0.212 0.523 0.212h1.028c0.195 0 0.383-0.076 0.523-0.212l1.325-1.288h5.632v4.5h-5.632l-1.325-1.288c-0.14-0.136-0.327-0.212-0.523-0.212h-1.028c-0.195 0-0.383 0.076-0.523 0.212l-1.325 1.288H4.006zM5.914 3.104c1.531-1.1 4.915-1.098 6.026-1.099 0.011 0.003 0.122 0 0.131 0 1.109 0 4.483 0 6.015 1.099 1.016 0.729 1.371 2.526 1.419 3.098v0.044h-5.447c-0.195 0-0.383 0.076-0.523 0.212l-1.325 1.288h-0.42l-1.325-1.288c-0.14-0.136-0.328-0.212-0.523-0.212H4.494C4.549 5.603 4.905 3.829 5.914 3.104zM11.904 21.995c-0.672 0-1.42-0.255-2.162-0.632v-3.319c0.1-0.156 0.664-0.521 2.242-0.525 1.596 0.004 2.17 0.369 2.274 0.527v3.32c-0.728 0.378-1.457 0.633-2.101 0.635C12.1 21.992 12.043 21.983 11.904 21.995zM17.954 18.266c-0.487 0.667-1.291 1.457-2.196 2.142v-2.446c0-0.323-0.184-1.925-3.742-1.942-0.003 0-0.005-0.002-0.008-0.001-0.008 0-0.015 0.001-0.024 0-0.008 0-0.015-0.001-0.023 0-0.003 0-0.005 0.002-0.008 0.001-3.528 0.017-3.711 1.619-3.711 1.942v2.459c-0.92-0.689-1.731-1.484-2.221-2.155-0.495-0.678-1-2.338-1.386-4.52h5.307c0.195 0 0.383-0.076 0.523-0.213l1.325-1.287h0.42l1.325 1.287c0.14 0.137 0.328 0.213 0.523 0.213h5.281C18.954 15.927 18.449 17.588 17.954 18.266z" fill="#000000" data-fill-palette-color="quaternary"></path><circle cx="7.75" cy="10.2456055" r="0.75" fill="#000000" data-fill-palette-color="quaternary"></circle><circle cx="16.25" cy="10.2456055" r="0.75" fill="#000000" data-fill-palette-color="quaternary"></circle></svg></g></svg></g></svg></g></svg></g><g></g></svg></g><defs></defs></svg><rect width="355.69860190473133" height="247.2" fill="none" stroke="none" visibility="hidden"></rect></g></svg></g></svg>